# xmcd
#
# Track frame offsets:
#	150
#	38706
#	60895
#	81920
#	105010
#	112375
#	130030
#	165505
#	176410
#	192783
#	211142
#
# Disc length: 2945 seconds
#
# Revision: 2
# Processed by: cddbd v1.5.2PL0 Copyright (c) Steve Scherf et al.
# Submitted via: EasyCDDAExtractor 2010.6.0.0
#
DISCID=810b7f0b
DTITLE=Vladimir Vysotsky - 11 В поисках жанра
DYEAR=2002
DGENRE=Vocal
TTITLE0=Песня о погибшем лётчике
TTITLE1=Песня о Земле
TTITLE2=Кто за чем бежит
TTITLE3=Прерванный полёт
TTITLE4=Песня Билла Сиггера
TTITLE5=Все мы живём как будто...
TTITLE6=Ой, где был я вчера
TTITLE7=Расстрел горного эха
TTITLE8=Такслучилось - мужчины ушли...
TTITLE9=Я не люблю
TTITLE10=Парус
EXTD=YEAR: 2002
EXTT0=
EXTT1=
EXTT2=
EXTT3=
EXTT4=
EXTT5=
EXTT6=
EXTT7=
EXTT8=
EXTT9=
EXTT10=
PLAYORDER=
